<svg xmlns="http://www.w3.org/2000/svg" width="1400" height="1690" viewBox="0 0 1400 1690"><style>text { font-family: Arial, sans-serif; }.title { font-size: 32px; font-weight: 700; fill: #123047; }.subtitle { font-size: 16px; fill: #426173; }.label { font-size: 16px; font-weight: 600; fill: #163247; }.meta { font-size: 13px; fill: #4c6473; }.pill { font-size: 12px; font-weight: 700; }</style><rect x="0" y="0" width="100%" height="100%" fill="#f4f1ea"/><rect x="34" y="28" width="1332" height="110" rx="24" fill="#fffdf8" stroke="#d8cdb9"/><text x="64" y="72" class="title">MIT OCW Information and Entropy: Learner Progress</text><text x="64" y="101" class="subtitle">Target concept: Thermodynamics And Entropy | Mastered 20 of 20 guided path concepts | Artifacts: 20</text><text x="64" y="124" class="subtitle">Generated from the Didactopus OCW demo run.</text><line x1="118" y1="176" x2="118" y2="1582" stroke="#b2aa99" stroke-width="6" stroke-linecap="round"/><circle cx="118" cy="176" r="17" fill="#1d7f5f" stroke="#ffffff" stroke-width="4"/><rect x="150" y="148" width="1180" height="56" rx="18" fill="#fffefb" stroke="#cfe1d8"/><text x="178" y="172" class="label">1. Mit Ocw 6 050J Information And Entropy Course Home</text><text x="178" y="194" class="meta">mit-ocw-information-and-entropy::mit-ocw-6-050j-information-and-entropy-course-home | mean evaluator score 0.83 | artifact mit-ocw-6-050j-information-and-entropy-course-home.md</text><rect x="1180" y="158" width="120" height="28" rx="14" fill="#d8efe6"/><text x="1240" y="177" text-anchor="middle" class="pill" fill="#1d5d47">MASTERED</text><circle cx="118" cy="250" r="17" fill="#1d7f5f" stroke="#ffffff" stroke-width="4"/><rect x="150" y="222" width="1180" height="56" rx="18" fill="#fffefb" stroke="#cfe1d8"/><text x="178" y="246" class="label">2. Information And Entropy</text><text x="178" y="268" class="meta">mit-ocw-information-and-entropy::information-and-entropy | mean evaluator score 0.83 | artifact information-and-entropy.md</text><rect x="1180" y="232" width="120" height="28" rx="14" fill="#d8efe6"/><text x="1240" y="251" text-anchor="middle" class="pill" fill="#1d5d47">MASTERED</text><circle cx="118" cy="324" r="17" fill="#1d7f5f" stroke="#ffffff" stroke-width="4"/><rect x="150" y="296" width="1180" height="56" rx="18" fill="#fffefb" stroke="#cfe1d8"/><text x="178" y="320" class="label">3. Ultimate Limits To Communication And Computation</text><text x="178" y="342" class="meta">mit-ocw-information-and-entropy::ultimate-limits-to-communication-and-computation | mean evaluator score 0.83 | artifact ultimate-limits-to-communication-and-computation.md</text><rect x="1180" y="306" width="120" height="28" rx="14" fill="#d8efe6"/><text x="1240" y="325" text-anchor="middle" class="pill" fill="#1d5d47">MASTERED</text><circle cx="118" cy="398" r="17" fill="#1d7f5f" stroke="#ffffff" stroke-width="4"/><rect x="150" y="370" width="1180" height="56" rx="18" fill="#fffefb" stroke="#cfe1d8"/><text x="178" y="394" class="label">4. Open Textbooks Problem Sets And Programming Work</text><text x="178" y="416" class="meta">mit-ocw-information-and-entropy::open-textbooks-problem-sets-and-programming-work | mean evaluator score 0.83 | artifact open-textbooks-problem-sets-and-programming-work.md</text><rect x="1180" y="380" width="120" height="28" rx="14" fill="#d8efe6"/><text x="1240" y="399" text-anchor="middle" class="pill" fill="#1d5d47">MASTERED</text><circle cx="118" cy="472" r="17" fill="#1d7f5f" stroke="#ffffff" stroke-width="4"/><rect x="150" y="444" width="1180" height="56" rx="18" fill="#fffefb" stroke="#cfe1d8"/><text x="178" y="468" class="label">5. Mit Ocw 6 050J Information And Entropy Syllabus</text><text x="178" y="490" class="meta">mit-ocw-information-and-entropy::mit-ocw-6-050j-information-and-entropy-syllabus | mean evaluator score 0.83 | artifact mit-ocw-6-050j-information-and-entropy-syllabus.md</text><rect x="1180" y="454" width="120" height="28" rx="14" fill="#d8efe6"/><text x="1240" y="473" text-anchor="middle" class="pill" fill="#1d5d47">MASTERED</text><circle cx="118" cy="546" r="17" fill="#1d7f5f" stroke="#ffffff" stroke-width="4"/><rect x="150" y="518" width="1180" height="56" rx="18" fill="#fffefb" stroke="#cfe1d8"/><text x="178" y="542" class="label">6. Prerequisites And Mathematical Background</text><text x="178" y="564" class="meta">mit-ocw-information-and-entropy::prerequisites-and-mathematical-background | mean evaluator score 0.83 | artifact prerequisites-and-mathematical-background.md</text><rect x="1180" y="528" width="120" height="28" rx="14" fill="#d8efe6"/><text x="1240" y="547" text-anchor="middle" class="pill" fill="#1d5d47">MASTERED</text><circle cx="118" cy="620" r="17" fill="#1d7f5f" stroke="#ffffff" stroke-width="4"/><rect x="150" y="592" width="1180" height="56" rx="18" fill="#fffefb" stroke="#cfe1d8"/><text x="178" y="616" class="label">7. Assessment Structure</text><text x="178" y="638" class="meta">mit-ocw-information-and-entropy::assessment-structure | mean evaluator score 0.83 | artifact assessment-structure.md</text><rect x="1180" y="602" width="120" height="28" rx="14" fill="#d8efe6"/><text x="1240" y="621" text-anchor="middle" class="pill" fill="#1d5d47">MASTERED</text><circle cx="118" cy="694" r="17" fill="#1d7f5f" stroke="#ffffff" stroke-width="4"/><rect x="150" y="666" width="1180" height="56" rx="18" fill="#fffefb" stroke="#cfe1d8"/><text x="178" y="690" class="label">8. Course Notes And Reference Texts</text><text x="178" y="712" class="meta">mit-ocw-information-and-entropy::course-notes-and-reference-texts | mean evaluator score 0.83 | artifact course-notes-and-reference-texts.md</text><rect x="1180" y="676" width="120" height="28" rx="14" fill="#d8efe6"/><text x="1240" y="695" text-anchor="middle" class="pill" fill="#1d5d47">MASTERED</text><circle cx="118" cy="768" r="17" fill="#1d7f5f" stroke="#ffffff" stroke-width="4"/><rect x="150" y="740" width="1180" height="56" rx="18" fill="#fffefb" stroke="#cfe1d8"/><text x="178" y="764" class="label">9. Independent Reasoning And Careful Comparison</text><text x="178" y="786" class="meta">mit-ocw-information-and-entropy::independent-reasoning-and-careful-comparison | mean evaluator score 0.83 | artifact independent-reasoning-and-careful-comparison.md</text><rect x="1180" y="750" width="120" height="28" rx="14" fill="#d8efe6"/><text x="1240" y="769" text-anchor="middle" class="pill" fill="#1d5d47">MASTERED</text><circle cx="118" cy="842" r="17" fill="#1d7f5f" stroke="#ffffff" stroke-width="4"/><rect x="150" y="814" width="1180" height="56" rx="18" fill="#fffefb" stroke="#cfe1d8"/><text x="178" y="838" class="label">10. Mit Ocw 6 050J Information And Entropy Unit Sequence</text><text x="178" y="860" class="meta">mit-ocw-information-and-entropy::mit-ocw-6-050j-information-and-entropy-unit-sequence | mean evaluator score 0.83 | artifact mit-ocw-6-050j-information-and-entropy-unit-sequence.md</text><rect x="1180" y="824" width="120" height="28" rx="14" fill="#d8efe6"/><text x="1240" y="843" text-anchor="middle" class="pill" fill="#1d5d47">MASTERED</text><circle cx="118" cy="916" r="17" fill="#1d7f5f" stroke="#ffffff" stroke-width="4"/><rect x="150" y="888" width="1180" height="56" rx="18" fill="#fffefb" stroke="#cfe1d8"/><text x="178" y="912" class="label">11. Counting And Probability</text><text x="178" y="934" class="meta">mit-ocw-information-and-entropy::counting-and-probability | mean evaluator score 0.83 | artifact counting-and-probability.md</text><rect x="1180" y="898" width="120" height="28" rx="14" fill="#d8efe6"/><text x="1240" y="917" text-anchor="middle" class="pill" fill="#1d5d47">MASTERED</text><circle cx="118" cy="990" r="17" fill="#1d7f5f" stroke="#ffffff" stroke-width="4"/><rect x="150" y="962" width="1180" height="56" rx="18" fill="#fffefb" stroke="#cfe1d8"/><text x="178" y="986" class="label">12. Shannon Entropy</text><text x="178" y="1008" class="meta">mit-ocw-information-and-entropy::shannon-entropy | mean evaluator score 0.83 | artifact shannon-entropy.md</text><rect x="1180" y="972" width="120" height="28" rx="14" fill="#d8efe6"/><text x="1240" y="991" text-anchor="middle" class="pill" fill="#1d5d47">MASTERED</text><circle cx="118" cy="1064" r="17" fill="#1d7f5f" stroke="#ffffff" stroke-width="4"/><rect x="150" y="1036" width="1180" height="56" rx="18" fill="#fffefb" stroke="#cfe1d8"/><text x="178" y="1060" class="label">13. Mutual Information</text><text x="178" y="1082" class="meta">mit-ocw-information-and-entropy::mutual-information | mean evaluator score 0.83 | artifact mutual-information.md</text><rect x="1180" y="1046" width="120" height="28" rx="14" fill="#d8efe6"/><text x="1240" y="1065" text-anchor="middle" class="pill" fill="#1d5d47">MASTERED</text><circle cx="118" cy="1138" r="17" fill="#1d7f5f" stroke="#ffffff" stroke-width="4"/><rect x="150" y="1110" width="1180" height="56" rx="18" fill="#fffefb" stroke="#cfe1d8"/><text x="178" y="1134" class="label">14. Source Coding And Compression</text><text x="178" y="1156" class="meta">mit-ocw-information-and-entropy::source-coding-and-compression | mean evaluator score 0.83 | artifact source-coding-and-compression.md</text><rect x="1180" y="1120" width="120" height="28" rx="14" fill="#d8efe6"/><text x="1240" y="1139" text-anchor="middle" class="pill" fill="#1d5d47">MASTERED</text><circle cx="118" cy="1212" r="17" fill="#1d7f5f" stroke="#ffffff" stroke-width="4"/><rect x="150" y="1184" width="1180" height="56" rx="18" fill="#fffefb" stroke="#cfe1d8"/><text x="178" y="1208" class="label">15. Huffman Coding</text><text x="178" y="1230" class="meta">mit-ocw-information-and-entropy::huffman-coding | mean evaluator score 0.83 | artifact huffman-coding.md</text><rect x="1180" y="1194" width="120" height="28" rx="14" fill="#d8efe6"/><text x="1240" y="1213" text-anchor="middle" class="pill" fill="#1d5d47">MASTERED</text><circle cx="118" cy="1286" r="17" fill="#1d7f5f" stroke="#ffffff" stroke-width="4"/><rect x="150" y="1258" width="1180" height="56" rx="18" fill="#fffefb" stroke="#cfe1d8"/><text x="178" y="1282" class="label">16. Channel Capacity</text><text x="178" y="1304" class="meta">mit-ocw-information-and-entropy::channel-capacity | mean evaluator score 0.83 | artifact channel-capacity.md</text><rect x="1180" y="1268" width="120" height="28" rx="14" fill="#d8efe6"/><text x="1240" y="1287" text-anchor="middle" class="pill" fill="#1d5d47">MASTERED</text><circle cx="118" cy="1360" r="17" fill="#1d7f5f" stroke="#ffffff" stroke-width="4"/><rect x="150" y="1332" width="1180" height="56" rx="18" fill="#fffefb" stroke="#cfe1d8"/><text x="178" y="1356" class="label">17. Channel Coding</text><text x="178" y="1378" class="meta">mit-ocw-information-and-entropy::channel-coding | mean evaluator score 0.83 | artifact channel-coding.md</text><rect x="1180" y="1342" width="120" height="28" rx="14" fill="#d8efe6"/><text x="1240" y="1361" text-anchor="middle" class="pill" fill="#1d5d47">MASTERED</text><circle cx="118" cy="1434" r="17" fill="#1d7f5f" stroke="#ffffff" stroke-width="4"/><rect x="150" y="1406" width="1180" height="56" rx="18" fill="#fffefb" stroke="#cfe1d8"/><text x="178" y="1430" class="label">18. Error Correcting Codes</text><text x="178" y="1452" class="meta">mit-ocw-information-and-entropy::error-correcting-codes | mean evaluator score 0.83 | artifact error-correcting-codes.md</text><rect x="1180" y="1416" width="120" height="28" rx="14" fill="#d8efe6"/><text x="1240" y="1435" text-anchor="middle" class="pill" fill="#1d5d47">MASTERED</text><circle cx="118" cy="1508" r="17" fill="#1d7f5f" stroke="#ffffff" stroke-width="4"/><rect x="150" y="1480" width="1180" height="56" rx="18" fill="#fffefb" stroke="#cfe1d8"/><text x="178" y="1504" class="label">19. Cryptography And Information Hiding</text><text x="178" y="1526" class="meta">mit-ocw-information-and-entropy::cryptography-and-information-hiding | mean evaluator score 0.83 | artifact cryptography-and-information-hiding.md</text><rect x="1180" y="1490" width="120" height="28" rx="14" fill="#d8efe6"/><text x="1240" y="1509" text-anchor="middle" class="pill" fill="#1d5d47">MASTERED</text><circle cx="118" cy="1582" r="17" fill="#1d7f5f" stroke="#ffffff" stroke-width="4"/><rect x="150" y="1554" width="1180" height="56" rx="18" fill="#fffefb" stroke="#cfe1d8"/><text x="178" y="1578" class="label">20. Thermodynamics And Entropy</text><text x="178" y="1600" class="meta">mit-ocw-information-and-entropy::thermodynamics-and-entropy | mean evaluator score 0.83 | artifact thermodynamics-and-entropy.md</text><rect x="1180" y="1564" width="120" height="28" rx="14" fill="#d8efe6"/><text x="1240" y="1583" text-anchor="middle" class="pill" fill="#1d5d47">MASTERED</text></svg>